Format : AVI
Format/Info : Audio Video Interleave
File size : 1.76 GiB
Duration : 2h 2mn
Overall bit rate : 2 051 Kbps
Writing library : VirtualDub build 32839/release

Video
ID : 0
Format : MPEG-4 Visual
Format profile : Advanced Simple@L5
Format settings, BVOP : Yes
Format settings, QPel : No
Format settings, GMC : No warppoints
Format settings, Matrix : Custom
Codec ID : XVID
Codec ID/Hint : XviD
Duration : 2h 2mn
Bit rate : 1 914 Kbps
Width : 720 pixels
Height : 400 pixels
Display aspect ratio : 16:9
Frame rate : 25.000 fps
Color space : YUV
Chroma subsampling : 4:2:0
Bit depth : 8 bits
Scan type : Progressive
Bits/(Pixel*Frame) : 0.266
Stream size : 1.64 GiB (93%)
Writing library : XviD 1.2.1 (UTC 2008-12-04)

Audio
ID : 1
Format : MPEG Audio
Format version : Version 1
Format profile : Layer 3
Codec ID : 55
Codec ID/Hint : MP3
Duration : 2h 2mn
Bit rate mode : Constant
Bit rate : 128 Kbps
Channel(s) : 2 channels
Sampling rate : 44.1 KHz
Stream size : 112 MiB (6%)
Alignment : Split accross interleaves
Interleave, duration : 40 ms (1.00 video frame)
Interleave, preload duration : 500 ms

 
http://www.imdb.com/title/tt1212419/


Users: 7.2/10 (5,985 votes) 130 reviews | Critics: 154 reviews Metascore: 56/100 (based on 42 reviews from Metacritic.com)

A drama centered on three people -- a blue-collar American, a French journalist and a London school boy -- who are touched by death in different ways.
Director:
Clint Eastwood
Writer:
Peter Morgan
Stars:
Matt Damon, Cécile De France and Bryce Dallas Howard